<svg class="animated" id="freepik_stories-eating-chocolate" xmlns="http://www.w3.org/2000/svg" viewBox="0 0 500 500" version="1.1" xmlns:xlink="http://www.w3.org/1999/xlink" xmlns:svgjs="http://svgjs.com/svgjs"><style>svg#freepik_stories-eating-chocolate:not(.animated) .animable {opacity: 0;}svg#freepik_stories-eating-chocolate.animated #freepik--Hearts--inject-63 {animation: 1s 1 forwards cubic-bezier(.36,-0.01,.5,1.38) slideDown;animation-delay: 0s;}svg#freepik_stories-eating-chocolate.animated #freepik--Character--inject-63 {animation: 1s 1 forwards linear fadeIn;animation-delay: 0s;}            @keyframes slideDown {                0% {                    opacity: 0;                    transform: translateY(-30px);                }                100% {                    opacity: 1;                    transform: translateY(0);                }            }                    @keyframes fadeIn {                0% {                    opacity: 0;                }                100% {                    opacity: 1;                }            }        </style><g id="freepik--Floor--inject-63" class="animable" style="transform-origin: 250px 411.78px;"><path d="M53.82,411.78c125.69-.61,266.67-.62,392.36,0-125.69.62-266.67.61-392.36,0Z" style="fill: rgb(38, 50, 56); transform-origin: 250px 411.78px;" id="elxytbr1y91a" class="animable"></path></g><g id="freepik--Plant--inject-63" class="animable" style="transform-origin: 396.805px 299.146px;"><path d="M384.22,297.82c1.2,5.09,2.46,10.1,2.71,15.32-.14.26-.11,1.21,0,.95,0,.84,1.31.69,1.31-.14,0-.54,0-1.08,0-1.61,3-3.72,7.34-6.07,10.85-9.3a20.22,20.22,0,0,0,5.95-9.47c2.92-10,.19-20.68,3.69-30.7,3-8.64,8.44-16.15,13-24,4.84-8.28,8.41-17,8.77-26.67.28-7.42-.6-17.32-6.25-22.88-6-5.9-13.42-1.47-18,3.79-13.3,15.27-19.45,34.56-21.94,54.29-1.37,10.92-2.8,21.9-2.47,32.93A89.26,89.26,0,0,0,384.22,297.82Z" style="fill: rgb(255, 11, 0); transform-origin: 406.169px 250.581px;" id="el5mav2tk0ff5" class="animable"></path><path d="M386.87,317.15a187.89,187.89,0,0,1,.37-30.93s-.05-.06-.05-.11c-.17-8.36-.84-16.69-.51-25.06a149.36,149.36,0,0,1,3.68-26.88c0-.11.19-.08.17,0a174.64,174.64,0,0,0-2.91,26.29q-.25,7.08.11,14.17c.08,1.54.22,3.09.33,4.63h0a165.41,165.41,0,0,1,24.87-65.83c.18-.27.66,0,.49.29a172.14,172.14,0,0,0-20.25,48.82c6.4-11.86,16.06-21.6,23.23-33,0-.06.14,0,.11.07-6.44,12.67-17.08,22.67-23.86,35.17q-1.77,7.63-2.86,15.4a172.17,172.17,0,0,0-1.54,21.39c3.89-7.28,7.94-14.25,11.13-21.95.08-.21.38-.07.31.14-2.71,8-6.36,16.62-11.46,23.44,0,5.07.12,10.14.42,15.19.79,13.51,3.1,26.83,4.17,40.29a.31.31,0,0,1-.62.07A308.2,308.2,0,0,1,386.87,317.15Z" style="fill: rgb(38, 50, 56); transform-origin: 401.459px 286.173px;" id="els45lws4ct4" class="animable"></path><path d="M401.21,213a.08.08,0,0,1,.15.07c-2.46,6.82-3.86,13.73-5.64,20.73a.26.26,0,0,1-.51-.09C395.94,226.62,398.47,219.54,401.21,213Z" style="fill: rgb(38, 50, 56); transform-origin: 398.288px 223.473px;" id="elyduqtlxenh" class="animable"></path><path d="M347.84,248.16a102.89,102.89,0,0,0,4.44,12.17c3.58,8.49,7.43,16.32,7.29,25.75-.06,4.2-.36,8.41.49,12.56A37.62,37.62,0,0,0,364,308.85c4.06,7.47,9.42,14.1,13.11,21.8a85.61,85.61,0,0,1,7.57,25.42c.06.48.81.43.75-.05a.41.41,0,0,1,0-.11.24.24,0,0,0,0-.09c2.78-20,3.28-40.32-.83-60.14A206.29,206.29,0,0,0,377.49,270c-2.55-7.3-5.94-14.41-11.14-20.21-3.38-3.74-10.81-10.95-16.46-8.13C347.17,243,347.1,245.55,347.84,248.16Z" style="fill: rgb(255, 11, 0); transform-origin: 367.519px 298.714px;" id="el2clhoota92w" class="animable"></path><path d="M363.25,295.66a165.59,165.59,0,0,0,9.9,17.94c1.68,2.73,3.39,5.45,5.06,8.19.79,1.29,1.69,2.59,2.4,4-.31-2.16-.61-4.32-.93-6.48-1.53-10.39-2.95-20.86-5.79-31-2.78-9.9-6.85-19.36-11.08-28.71-.11-.25.28-.38.4-.14,3.51,7.4,7.08,14.8,9.87,22.51a110.69,110.69,0,0,1,3.82,13.14,194.59,194.59,0,0,0-4-27.65c0-.08.11-.13.13,0a92.82,92.82,0,0,1,4.18,28.76.05.05,0,0,1,0,0c.6,2.69,1.12,5.4,1.59,8.13,2,11.53,3.59,23.14,5,34.77a122.21,122.21,0,0,0,.39-22.47c0-.18.24-.19.26,0a71,71,0,0,1-.5,23.68q.78,6.63,1.49,13.27c1,9.44,2.45,19.09,2.63,28.59a.19.19,0,0,1-.38,0c-.85-5.2-1.13-10.52-1.73-15.76s-1.22-10.49-1.88-15.73c-1-7.64-2-15.26-3.1-22.88-1-2.85-3.11-5.51-4.67-8-1.71-2.71-3.42-5.42-5.07-8.17a112.82,112.82,0,0,1-8.09-15.92C363,295.6,363.2,295.54,363.25,295.66Z" style="fill: rgb(38, 50, 56); transform-origin: 375.43px 320.856px;" id="eli8hja9n5tup" class="animable"></path><path d="M363.29,287a105.06,105.06,0,0,1,9.51,19.29c0,.08-.11.16-.15.07-3.21-6.41-6.35-12.85-9.55-19.26C363.05,287,363.23,286.9,363.29,287Z" style="fill: rgb(38, 50, 56); transform-origin: 367.946px 296.679px;" id="elwd6tvtp6ueq" class="animable"></path><path d="M440.34,259.4c-2.61,4.5-5.59,9.9-4.47,15.3.71,3.41,3.21,6.19,3.66,9.67,1,7.69-6.65,12.78-12.2,16.41-13.83,9.07-32.79,17.16-35.31,35.69-.09.66-1.23.49-1.14-.15a.5.5,0,0,1,0-.12s-.06-.06-.06-.11a71.15,71.15,0,0,1,.25-28.3c2.07-9.55,6.24-18.13,11.15-26.52,8.33-14.2,17.14-28.74,29.72-39.62,3.49-3,10.62-8.41,13.4-1.62C448.05,246.63,443.54,253.93,440.34,259.4Z" style="fill: rgb(255, 11, 0); transform-origin: 417.846px 286.824px;" id="el9pxe4jf5aap" class="animable"></path><g id="el3gp1f15z7aa"><path d="M440.34,259.4c-2.61,4.5-5.59,9.9-4.47,15.3.71,3.41,3.21,6.19,3.66,9.67,1,7.69-6.65,12.78-12.2,16.41-13.83,9.07-32.79,17.16-35.31,35.69-.09.66-1.23.49-1.14-.15a.5.5,0,0,1,0-.12s-.06-.06-.06-.11a71.15,71.15,0,0,1,.25-28.3c2.07-9.55,6.24-18.13,11.15-26.52,8.33-14.2,17.14-28.74,29.72-39.62,3.49-3,10.62-8.41,13.4-1.62C448.05,246.63,443.54,253.93,440.34,259.4Z" style="opacity: 0.1; transform-origin: 417.846px 286.824px;" class="animable"></path></g><path d="M427.68,289.51c-9.16,9.92-23.74,15.49-31.63,26.6,4.67-17,12.41-32.36,24.31-45.67.31-.34-.17-.83-.5-.5A89.81,89.81,0,0,0,400,298.71a128,128,0,0,1,8.55-21.88c.13-.27-.25-.5-.4-.24a83.51,83.51,0,0,0-9.23,24.6c-10.39,25.18-11.36,54.7-9.18,81.24,0,.37.61.38.6,0-.6-20.92-.26-42.19,4.75-62.61l.33-1.27c8.59-12,23.1-17.52,32.43-28.88C427.93,289.56,427.78,289.4,427.68,289.51Z" style="fill: rgb(38, 50, 56); transform-origin: 408.33px 326.271px;" id="elc0zhwx3ako4" class="animable"></path><path d="M429.81,281c-4.81,4.42-9.55,8.93-14.37,13.35a.06.06,0,0,0,.07.09,70.47,70.47,0,0,0,14.59-13.15A.21.21,0,0,0,429.81,281Z" style="fill: rgb(38, 50, 56); transform-origin: 422.781px 287.705px;" id="elea4yymrcpm" class="animable"></path><path d="M430.57,261.85a151.24,151.24,0,0,1-14.4,19.81c-.07.08,0,.2.12.12A69.67,69.67,0,0,0,430.83,262,.15.15,0,0,0,430.57,261.85Z" style="fill: rgb(38, 50, 56); transform-origin: 423.496px 271.791px;" id="eljgimpmnyrpj" class="animable"></path><polygon points="366.74 355.06 408.9 355.06 403.22 411.78 373.24 411.78 366.74 355.06" style="fill: rgb(69, 90, 100); transform-origin: 387.82px 383.42px;" id="el3znhdcu9kzj" class="animable"></polygon></g><g id="freepik--Hearts--inject-63" class="animable animator-active" style="transform-origin: 249.998px 75.7116px;"><path d="M303.34,86.89c2,15.38,14.81,28.52,14.81,28.52s18.19-2.47,29.22-13.37c9.19-9.1,9.83-22.13,2.16-27.66C338.52,66.44,328,86.74,328,86.74s4.2-22.47-9.37-23C309.2,63.4,301.68,74.06,303.34,86.89Z" style="fill: rgb(255, 11, 0); transform-origin: 328.963px 89.571px;" id="el8f17368wuq5" class="animable"></path><path d="M152.12,99.15c8.41,5.72,20.42,5.15,20.42,5.15s6.71-10,6.16-20.14c-.46-8.46-6.57-14.44-12.62-13.09C157.4,73,162.78,87,162.78,87s-9.18-11.83-15.34-5.41C143.15,86.06,145.11,94.39,152.12,99.15Z" style="fill: rgb(255, 11, 0); transform-origin: 161.956px 87.5976px;" id="ellzaz0pbib8" class="animable"></path><path d="M180.06,47.51c3,5.19,9.59,8,9.59,8s6.12-3.63,8.41-9.19c1.91-4.63.17-9.38-3.4-10.2-5.13-1.17-5.82,7.66-5.82,7.66S187,35.07,182,36.94C178.6,38.24,177.53,43.18,180.06,47.51Z" style="fill: rgb(255, 11, 0); transform-origin: 188.756px 45.7616px;" id="elvv73jluth8" class="animable"></path></g><g id="freepik--Character--inject-63" class="animable" style="transform-origin: 249.999px 275.716px;"><path d="M444.69,456.56c-1.46-4.39-79.47-107-84.79-109-.61-.25-35.34,24.57-35.34,24.57C323.13,374,257,360.18,257,360.18l-.5,79.76,120.42-2.8s16.29,9.53,31.18,17.3h.06c9.16,4.81,17.28,8.86,19.59,9.46C433.77,465.43,446.18,460.93,444.69,456.56Z" style="fill: rgb(235, 148, 129); transform-origin: 350.657px 405.882px;" id="elv7iwte1imsr" class="animable"></path><path d="M427.74,463.9c-2.32-.59-10.43-4.64-19.59-9.46,0,0,0,0-.06,0-14.88-7.76-31.17-17.3-31.17-17.3l-26.8.63L308,370.14c9.22,1.61,16.09,2.57,16.55,2,0,0,34.71-24.82,35.33-24.55,5.32,2,83.32,104.62,84.79,109S433.77,465.44,427.74,463.9Z" style="fill: rgb(235, 235, 235); transform-origin: 376.395px 405.899px;" id="elev09i48dwuk" class="animable"></path><path d="M445.4,456.7c-1.54-4.5-79.9-107.1-85.36-109.12-2.07-.78-19.06,9.76-35.48,24.53l50.6,66.08s46.61,24.57,52.84,26.15S446.94,461.2,445.4,456.7Z" style="fill: rgb(255, 11, 0); transform-origin: 385.044px 406.095px;" id="elrcfmv8ueo2" class="animable"></path><path d="M440.17,458.36c-13.56-16.88-66.65-86.22-78.77-103.93-.09-.15,0-.22.11-.09,13.81,16.44,66.33,86.21,78.94,103.8C440.72,458.52,440.46,458.72,440.17,458.36Z" style="fill: rgb(38, 50, 56); transform-origin: 400.963px 406.41px;" id="eldqbwxotgshf" class="animable"></path><path d="M419.27,460.56a17.36,17.36,0,0,1-3.66-13.5c.7-3.91,2.59-8.25,6.24-10.85.11-.08.26.11.16.21-6,6.12-7.21,16.76-2.53,24A.13.13,0,0,1,419.27,460.56Z" style="fill: rgb(38, 50, 56); transform-origin: 418.729px 448.392px;" id="el0yyun58jp0a" class="animable"></path><path d="M381,442.27c-5.35-6.81-9-16.65-6.65-25.23.09-.33.56-.2.61.09a120.09,120.09,0,0,0,7,24.61A.55.55,0,0,1,381,442.27Z" style="fill: rgb(38, 50, 56); transform-origin: 377.816px 429.681px;" id="el8z28p5a6i5t" class="animable"></path><path d="M387.13,446c-5.35-6.81-9-16.65-6.65-25.23.09-.33.56-.19.61.09a119.92,119.92,0,0,0,7,24.61A.55.55,0,0,1,387.13,446Z" style="fill: rgb(38, 50, 56); transform-origin: 383.946px 433.413px;" id="eludihzv53cvl" class="animable"></path><path d="M393.26,449.73c-5.35-6.81-9-16.65-6.65-25.22.09-.34.56-.2.61.08a119.74,119.74,0,0,0,7,24.61A.55.55,0,0,1,393.26,449.73Z" style="fill: rgb(38, 50, 56); transform-origin: 390.076px 437.144px;" id="elkaxjx18l7tm" class="animable"></path><path d="M399.39,453.46c-5.35-6.81-9-16.64-6.65-25.22.09-.33.56-.2.61.09a119.83,119.83,0,0,0,7,24.6A.55.55,0,0,1,399.39,453.46Z" style="fill: rgb(38, 50, 56); transform-origin: 396.206px 440.876px;" id="elqlwy7bww7ii" class="animable"></path><path d="M348.42,371.28c-5.88-7.74,6.14-16.88,12-9.13S354.3,379,348.42,371.28Z" style="fill: rgb(38, 50, 56); transform-origin: 354.417px 366.709px;" id="elofhhgx29a4" class="animable"></path><path d="M378,455.48c1.95-7.38.65-15.34.29-22.83a1.05,1.05,0,0,0-1.5-.81.23.23,0,0,0-.36-.07,45.45,45.45,0,0,0-12.82,19.7c-1.36,4.44-.83,11,4.72,12.27C373.57,464.94,376.85,459.79,378,455.48Zm-5.46,4.67c-8,5-7.42-6.11-6.29-9.34a49.15,49.15,0,0,1,2.72-6.06c2.11-4.1,4.75-7.82,7.24-11.67-.05,3.69.21,7.35.3,11C376.6,448.51,377,457.38,372.53,460.15Z" style="fill: rgb(38, 50, 56); transform-origin: 371.014px 447.814px;" id="elfix334qqpt" class="animable"></path><path d="M353.36,410.68c-4.08,4-1.14,9.84,2.33,12.93a45.42,45.42,0,0,0,21.18,10.19.23.23,0,0,0,.28-.24,1.06,1.06,0,0,0,.86-1.48c-3.59-6.58-6.6-14.07-12.1-19.36C362.7,409.63,357.22,406.92,353.36,410.68Zm17.17,12.53c1.84,3.2,3.52,6.46,5.48,9.59a136.49,136.49,0,0,1-12.24-6.22,47.94,47.94,0,0,1-5.48-3.77c-2.64-2.17-8.93-11.4.53-11.25C364,411.64,368.34,419.4,370.53,423.21Z" style="fill: rgb(38, 50, 56); transform-origin: 364.738px 421.327px;" id="elfoiqb5rsyl4" class="animable"></path><path d="M331.73,350.29l-125.07-9.64s-53.87-22.6-97.11-12.12c-49.57,12-57.62,69.53-7.9,93.57,49.18,23.78,247.59,19.1,247.59,19.1l-45.47-72.33s-50.89-12.63-114.48-13.52l130,14Z" style="fill: rgb(55, 71, 79); transform-origin: 208.684px 383.665px;" id="el1frxw3ypdxk" class="animable"></path><path d="M268.1,361.31c-7.64-1.41-26.16-3.14-33.88-4s-15.6-1.58-23.41-2.22c-15.58-1.28-11.07-1.52-26.7-1.22-1.46,0-2.92.09-4.39.15-.31-.11-.64-.16-1-.24-.75-.18-1.5-.36-2.25-.51-1.42-.26-2.84-.47-4.26-.68-3-.45-5.92-.76-8.87-1.3-.18,0-.24.24-.07.28,3,.65,5.87,1.5,8.84,2.14l2.56.53c-5.73.32-11.45.77-17.17,1.3-.18,0-.19.29,0,.28,7.78-.47,15.62-.54,23.42-.43s15.48.28,23.21.7c15.64.87,55,6.38,63.73,6.74C268.75,362.85,269,361.46,268.1,361.31Z" style="fill: rgb(38, 50, 56); transform-origin: 213.012px 357.06px;" id="elxwzy319059" class="animable"></path><path d="M326.9,439.19c-2.8-4.47-5.2-9.24-7.76-13.85s-5.16-9.25-7.75-13.87c-5.15-9.21-23.67-40.2-25.49-42.36-.12-.14-.35,0-.3.18.88,2.39,12.43,22.91,15.09,27.49,5.32,9.15,10.91,18.11,16.42,27.15,1.57,2.58,3.2,5.12,4.8,7.69s3.29,5.08,4.75,7.72C326.75,439.5,327,439.34,326.9,439.19Z" style="fill: rgb(38, 50, 56); transform-origin: 306.258px 404.23px;" id="el36tuu27zfbp" class="animable"></path><path d="M55.3,463.93c1.42-4.41,78.44-107.81,83.74-109.83.6-.26,35.57,24.22,35.57,24.22,1.45,1.9,67.46-12.57,67.46-12.57l1.27,79.74-120.45-1.63s-16.2,9.69-31,17.59c0,0,0,0-.05,0-9.12,4.9-17.19,9-19.5,9.64C66.31,472.7,53.85,468.31,55.3,463.93Z" style="fill: rgb(235, 148, 129); transform-origin: 149.262px 412.764px;" id="elp3zhnc3s0l" class="animable"></path><path d="M72.32,471.1c2.32-.61,10.38-4.74,19.5-9.64,0,0,0,0,.06,0,14.8-7.91,31-17.61,31-17.61l26.81.37,41.44-68c-9.2,1.7-16.06,2.73-16.52,2.12,0,0-35-24.48-35.57-24.21-5.3,2-82.31,105.42-83.74,109.82S66.31,472.7,72.32,471.1Z" style="fill: rgb(235, 235, 235); transform-origin: 123.158px 412.783px;" id="elkrchgm47yn" class="animable"></path><path d="M54.59,464.07c1.5-4.51,78.87-107.86,84.31-109.94,2.06-.79,19.15,9.58,35.71,24.19l-50,66.57s-46.37,25-52.58,26.66S53.1,468.58,54.59,464.07Z" style="fill: rgb(255, 11, 0); transform-origin: 114.54px 412.991px;" id="elo6ju0mtdff" class="animable"></path><path d="M59.84,465.68c13.39-17,65.81-86.85,77.76-104.68.1-.15,0-.22-.11-.08C123.85,377.48,72,447.76,59.55,465.47,59.29,465.84,59.55,466,59.84,465.68Z" style="fill: rgb(38, 50, 56); transform-origin: 98.5421px 413.348px;" id="elzty7pn5id6s" class="animable"></path><path d="M80.76,467.68a17.35,17.35,0,0,0,3.53-13.53c-.74-3.91-2.67-8.23-6.35-10.79-.11-.08-.25.11-.16.21,6,6.06,7.38,16.69,2.77,23.95A.13.13,0,1,0,80.76,467.68Z" style="fill: rgb(38, 50, 56); transform-origin: 81.1308px 455.536px;" id="eli8f8a0nufdg" class="animable"></path><path d="M118.85,449c5.28-6.86,8.86-16.73,6.41-25.28-.09-.34-.56-.2-.61.09a119.42,119.42,0,0,1-6.75,24.67A.55.55,0,0,0,118.85,449Z" style="fill: rgb(38, 50, 56); transform-origin: 121.959px 436.363px;" id="el4fcadzyzycu" class="animable"></path><path d="M112.75,452.81c5.29-6.86,8.86-16.73,6.42-25.28-.1-.34-.57-.2-.62.09a119.39,119.39,0,0,1-6.74,24.67A.54.54,0,0,0,112.75,452.81Z" style="fill: rgb(38, 50, 56); transform-origin: 115.86px 440.186px;" id="elw6a2k9dun19" class="animable"></path><path d="M106.66,456.6c5.29-6.86,8.86-16.73,6.41-25.28-.09-.34-.56-.2-.61.09a119.39,119.39,0,0,1-6.74,24.67A.54.54,0,0,0,106.66,456.6Z" style="fill: rgb(38, 50, 56); transform-origin: 109.768px 443.976px;" id="elrisnrgwtfy9" class="animable"></path><path d="M100.56,460.39c5.29-6.86,8.86-16.73,6.42-25.28-.1-.33-.57-.2-.61.09a120,120,0,0,1-6.75,24.67A.54.54,0,0,0,100.56,460.39Z" style="fill: rgb(38, 50, 56); transform-origin: 103.67px 447.768px;" id="el2kn3231cbl5" class="animable"></path><path d="M150.75,377.73c5.8-7.8-6.31-16.83-12.12-9S144.94,385.54,150.75,377.73Z" style="fill: rgb(255, 255, 255); transform-origin: 144.688px 373.228px;" id="elk3s0n3eegbq" class="animable"></path><path d="M131.74,470.37c5.54-1.33,6-7.88,4.6-12.31a45.56,45.56,0,0,0-13-19.58.23.23,0,0,0-.36.07,1.06,1.06,0,0,0-1.5.83c-.28,7.49-1.51,15.47.52,22.83C123.17,466.5,126.5,471.63,131.74,470.37Zm-8.37-19.54c0-3.69.28-7.35.19-11a135.62,135.62,0,0,1,7.35,11.59,49.94,49.94,0,0,1,2.78,6c1.16,3.22,1.87,14.36-6.2,9.41C123.05,464.09,123.31,455.22,123.37,450.83Z" style="fill: rgb(38, 50, 56); transform-origin: 128.933px 454.493px;" id="el2qtacm7pgkw" class="animable"></path><path d="M133.65,419.33c-5.44,5.35-8.39,12.86-11.91,19.48a1.07,1.07,0,0,0,.88,1.47.23.23,0,0,0,.28.24A45.42,45.42,0,0,0,144,430.13c3.44-3.13,6.32-9,2.2-13C142.29,413.45,136.83,416.21,133.65,419.33Zm7.08-1.23c9.47-.24,3.26,9,.64,11.25a50.13,50.13,0,0,1-5.44,3.82,136.53,136.53,0,0,1-12.18,6.34c1.93-3.15,3.57-6.43,5.38-9.65C131.29,426,135.52,418.23,140.73,418.1Z" style="fill: rgb(38, 50, 56); transform-origin: 134.945px 427.948px;" id="elq4l4b6y1xe" class="animable"></path><path d="M237.87,347l23.38-.87s71.92-20.57,107.48-15.34c48.71,7.18,54.54,71.22,18.92,92.75-45.12,27.28-234.71,23.85-234.71,23.85l43-74.25s54.8-14.86,115.65-13.28L238,358.11Z" style="fill: rgb(55, 71, 79); transform-origin: 281.718px 388.733px;" id="elr07bs3kqjje" class="animable"></path><path d="M193.12,377.91a2.11,2.11,0,0,0,.09-.38c0-.1,0-.2.07-.31l.18-.71a14.59,14.59,0,0,1,.5-1.45c.18-.48.39-.95.6-1.41a9.94,9.94,0,0,1,.81-1.32s.07-.05.11-.08l.08-.05.11-.05s.06,0,.11,0c7.36-1.43,57.43-9,64.88-9.89s15-1.67,22.57-2.36c15-1.38,18-2.35,33-2.21,1.42,0,2.83.06,4.24.1.3-.1.62-.16.93-.23.72-.18,1.44-.37,2.17-.52,1.36-.27,2.73-.48,4.1-.7,2.85-.46,5.71-.78,8.55-1.33.17,0,.24.22.07.26-2.85.66-5.65,1.51-8.51,2.15-.82.19-1.64.37-2.47.54,5.54.25,11.06.64,16.59,1.09.17,0,.18.29,0,.28-7.51-.39-15.09-.38-22.61-.2s-14.93.41-22.39.89c-15.09,1-18,2.68-33,4.37-8.43,1-59.48,8.8-67.95,9.22l-.1,0a5.83,5.83,0,0,1-.23.58c-.23.47-.46.92-.71,1.37s-.47.87-.75,1.29l-.41.61-.21.31a2.2,2.2,0,0,0-.21.32A.14.14,0,1,1,193.12,377.91Z" style="fill: rgb(38, 50, 56); transform-origin: 267.551px 366.583px;" id="elp4kbzj4uj8m" class="animable"></path><path d="M168.64,442.75c2.67-4.34,4.93-9,7.37-13.44l7.34-13.45c4.9-8.94,22.47-39,24.22-41.13.11-.13.34,0,.28.17-.82,2.33-11.78,22.24-14.31,26.68-5,8.88-10.36,17.58-15.59,26.35-1.49,2.51-3,5-4.56,7.47s-3.12,4.94-4.52,7.5C168.79,443.05,168.55,442.9,168.64,442.75Z" style="fill: rgb(38, 50, 56); transform-origin: 188.24px 408.82px;" id="elh8sbfeg6nw7" class="animable"></path><path d="M346.16,436.29c-6.47.5-12.85,1.34-19.23,2.2s-12.74,1.82-19.09,3.14a142.17,142.17,0,0,0,38.32-5.34Z" style="fill: rgb(38, 50, 56); transform-origin: 327px 438.96px;" id="eltv056p5i8cj" class="animable"></path><path d="M248.79,242.17c36.06,49.34,76.49,94.54,97.11,90.05,23-5-4.08-68.56-6.92-70.73-4.17-3.19-32.87-24.26-70.66-48.89C231.94,188.9,228.76,214.78,248.79,242.17Z" style="fill: rgb(235, 148, 129); transform-origin: 295.811px 267.912px;" id="el8r37vzdymps" class="animable"></path><path d="M290,300.68l37.3-53.47s-37.1-25.76-70.46-42.53-34.09,2.52-17.14,30S290,300.68,290,300.68Z" style="fill: rgb(255, 11, 0); transform-origin: 278.049px 249.551px;" id="el35qugn4lmht" class="animable"></path><path d="M327.31,247.2l-13.73,19.68-7.46,10.7-.89,1.28L290,300.68s-33.34-38.44-50.29-66c-1.85-3-3.48-5.9-4.89-8.66-.05-.08-.09-.17-.13-.25-7.21-14.27-8.28-24.94-.52-27,4.45-1.2,11.84.45,22.67,5.89C290.21,221.45,327.31,247.2,327.31,247.2Z" style="fill: rgb(255, 11, 0); transform-origin: 278.055px 249.54px;" id="elo1ms803d6bh" class="animable"></path><path d="M254.48,229.23a26.4,26.4,0,0,0-3.95-6.32,25.94,25.94,0,0,0,2.2,7.13,27,27,0,0,0,4,6.33A25.57,25.57,0,0,0,254.48,229.23Zm19.64,36.82a26,26,0,0,0-6.34,4,28.85,28.85,0,0,0,13.46-6.18A25.26,25.26,0,0,0,274.12,266.05Zm20.1-33.1a26,26,0,0,0-7.27-1.67,25.77,25.77,0,0,0,6.6,3.47,26.2,26.2,0,0,0,7.27,1.66A27.25,27.25,0,0,0,294.22,233Z" style="fill: rgb(255, 255, 255); transform-origin: 275.675px 246.48px;" id="eldxxegg5cpy" class="animable"></path><path d="M316,243.82a525.76,525.76,0,0,0-31.17,44.79c-.14.23.23.47.4.26a528.17,528.17,0,0,0,31.21-44.77C316.62,243.85,316.21,243.58,316,243.82Z" style="fill: rgb(38, 50, 56); transform-origin: 300.642px 266.339px;" id="elmqx9ixgs0bk" class="animable"></path><g id="elsone9dzdhjn"><path d="M313.58,266.88l-7.46,10.7-.89,1.28L290,300.68s-33.34-38.44-50.29-66c-1.85-3-3.48-5.9-4.89-8.66-.05-.08-.09-.17-.13-.25-7.21-14.27-8.28-24.94-.52-27Z" style="opacity: 0.1; transform-origin: 271.19px 249.725px;" class="animable"></path></g><path d="M153.13,355.49l146.23-7.3C301.23,346.65,278.42,243,254,208c-4.57-6.56-27.5-18-40.77-2.93C171.89,252.08,151.22,353.26,153.13,355.49Z" style="fill: rgb(255, 11, 0); transform-origin: 226.238px 276.563px;" id="ela11psep2jm" class="animable"></path><path d="M299.36,348.19l-146.23,7.3c-1.44-1.68,9.93-59.48,33.3-108,.41-.86.82-1.71,1.24-2.55,7.38-14.95,15.91-28.89,25.57-39.87C226.51,190,249.44,201.44,254,208c8.76,12.57,17.33,34,24.62,56.37.12.39.25.78.37,1.17C291.8,305.12,300.55,347.21,299.36,348.19Z" style="fill: rgb(255, 11, 0); transform-origin: 226.238px 276.563px;" id="el43hwpqjyffl" class="animable"></path><path d="M217.7,211.82a26.46,26.46,0,0,0-7.27-1.67,25.61,25.61,0,0,0,6.6,3.47,26.13,26.13,0,0,0,7.27,1.67A27.12,27.12,0,0,0,217.7,211.82Zm28.84,80.7a26,26,0,0,0-7.27-1.67A28.72,28.72,0,0,0,253.14,296,26.33,26.33,0,0,0,246.54,292.52Zm-58.45,0a25.93,25.93,0,0,0-7.28-1.67,26.1,26.1,0,0,0,6.6,3.47A26.43,26.43,0,0,0,194.7,296,26.66,26.66,0,0,0,188.09,292.53Zm32.74-32.59a26.37,26.37,0,0,0-1.67,7.27,29,29,0,0,0,5.14-13.87A26.59,26.59,0,0,0,220.83,259.94ZM184,349.53a33.25,33.25,0,0,0-1.3,4.48l1.43-.07a32.82,32.82,0,0,0,1.67-3.74,26.57,26.57,0,0,0,1.67-7.27A26.59,26.59,0,0,0,184,349.53Zm94.63-85.16a30,30,0,0,0-4.51,1.68,26,26,0,0,0-6.34,4,26.79,26.79,0,0,0,7.13-2.21,33.34,33.34,0,0,0,4.09-2.26C278.88,265.15,278.75,264.76,278.63,264.37ZM160.38,322l-.77.37c-.2.76-.39,1.52-.58,2.26.72-.27,1.44-.57,2.14-.88a26.54,26.54,0,0,0,6.33-4A25.26,25.26,0,0,0,160.38,322Zm27.81-77.26-.52.25c-.42.84-.83,1.69-1.24,2.55.87-.32,1.72-.68,2.57-1.05a25.34,25.34,0,0,0,6.32-4A26.06,26.06,0,0,0,188.19,244.69Zm33.63,80.67a26.76,26.76,0,0,0-4-6.32,26.4,26.4,0,0,0,2.2,7.13,25.66,25.66,0,0,0,4,6.31A26.72,26.72,0,0,0,221.82,325.36Zm54,2.45a26.47,26.47,0,0,0-4-6.34,26.87,26.87,0,0,0,2.2,7.13,26.54,26.54,0,0,0,4,6.33A25.78,25.78,0,0,0,275.8,327.81Zm-21.32-98.58a26.4,26.4,0,0,0-3.95-6.32,25.94,25.94,0,0,0,2.2,7.13,27,27,0,0,0,4,6.33A25.57,25.57,0,0,0,254.48,229.23Z" style="fill: rgb(255, 255, 255); transform-origin: 219.015px 282.08px;" id="elwnnm11fdsnr" class="animable"></path><path d="M189.6,234.31c-37.68,48.11-75.31,111.24-65.38,129.86,11.06,20.75,70-34.49,71.29-37.81,1.94-4.89,14.42-38.23,27.85-81.29C236.29,203.62,210.52,207.59,189.6,234.31Z" style="fill: rgb(235, 148, 129); transform-origin: 174.722px 291.441px;" id="eliz3ym12sp5" class="animable"></path><path d="M145.68,286.44l61.83,20.7s14.25-42.85,20.94-79.58-12-32-33.66-8S145.68,286.44,145.68,286.44Z" style="fill: rgb(255, 11, 0); transform-origin: 187.754px 253.955px;" id="ell2ecywbctdf" class="animable"></path><path d="M188.19,244.69a26,26,0,0,0-6.31,4,26.61,26.61,0,0,0,7.12-2.22,25.34,25.34,0,0,0,6.32-4A26.06,26.06,0,0,0,188.19,244.69Zm-33.54,29.83a26.1,26.1,0,0,0-1.67,7.27,26.09,26.09,0,0,0,3.47-6.6,26.57,26.57,0,0,0,1.67-7.27A26.59,26.59,0,0,0,154.65,274.52Zm66.18-14.58a26.37,26.37,0,0,0-1.67,7.27l.28-.39c.8-3,1.61-6.14,2.41-9.31C221.48,258.31,221.15,259.12,220.83,259.94Zm-32.74,32.59a25.93,25.93,0,0,0-7.28-1.67,26.1,26.1,0,0,0,6.6,3.47A26.43,26.43,0,0,0,194.7,296,26.66,26.66,0,0,0,188.09,292.53Zm29.61-80.71a26.46,26.46,0,0,0-7.27-1.67,25.61,25.61,0,0,0,6.6,3.47,26.13,26.13,0,0,0,7.27,1.67A27.12,27.12,0,0,0,217.7,211.82Z" style="fill: rgb(255, 255, 255); transform-origin: 188.64px 253.075px;" id="eldupcgifcx6f" class="animable"></path><path d="M226.83,249.22a.13.13,0,0,0-.24-.11c-1,2-1.94,4-2.92,6.08.94-4.08,1.8-8.18,2.55-12.3,0-.13-.18-.2-.22-.07-2.73,8.92-7.8,27.87-10.39,36.83s-5.59,17.82-8.08,26.81c-1.77-.28-2.72-.53-4-.69-.3,0-.48.3-.2.43,1.68.77,5,1.92,5.07,1.69,3.52-8.64,6.26-18.29,8.9-27.23,1.31-4.4,4.86-18.85,5.92-23.3A80.2,80.2,0,0,0,226.83,249.22Z" style="fill: rgb(38, 50, 56); transform-origin: 215.016px 275.335px;" id="elr67bpklzewr" class="animable"></path><path d="M207.58,295.37a527,527,0,0,0-51.76-17.28c-.26-.07-.39.36-.14.46a525.29,525.29,0,0,0,51.75,17.32C207.71,296,207.85,295.47,207.58,295.37Z" style="fill: rgb(38, 50, 56); transform-origin: 181.635px 286.986px;" id="el6u5yxxj8ikw" class="animable"></path><path d="M225.43,206.29c.86,2.56,15,18.36,26.87,16.66,3.88-.55,1.77-21.85,1.77-21.85l.21-1.61L257.12,177,225.7,161S225.08,205.2,225.43,206.29Z" style="fill: rgb(235, 148, 129); transform-origin: 241.221px 192.039px;" id="el9l85rpca70q" class="animable"></path><path d="M257.12,177l-2.85,22.49-.2,1.62s.38,3.86.52,8.33c-16.53-.88-25.16-12.42-29.21-20.56.1-12.77.33-27.89.33-27.89Z" style="fill: rgb(38, 50, 56); transform-origin: 241.25px 185.215px;" id="eligpy192de1e" class="animable"></path><path d="M291.42,131.88c13.14,49.29-14.9,62.73-25.53,65.55-9.65,2.57-42.84,10.07-61-37.61s.59-69.37,22.36-76.4S278.27,82.58,291.42,131.88Z" style="fill: rgb(235, 148, 129); transform-origin: 246.214px 140.234px;" id="elyomg6r0qh09" class="animable"></path><path d="M271.36,175a2,2,0,0,1-2,1.12,1.86,1.86,0,0,1-.75-.21,3.56,3.56,0,0,1-3.79,3.07,3.5,3.5,0,0,1-2.55-1.35,2.17,2.17,0,0,1-.76.09,2,2,0,0,1-.83-.24,2.82,2.82,0,1,1-2-4.54,3.22,3.22,0,0,1,.7.14,1,1,0,0,1,0-.26,2.07,2.07,0,0,1,.83-1.53,2.69,2.69,0,0,1,1.69-4.92,2.69,2.69,0,0,1,2.35,1.8,2.75,2.75,0,0,1,1.43-.3,2.53,2.53,0,0,1,1.56.67,3.72,3.72,0,0,1,7.21,1.51,3.58,3.58,0,0,1-.71,1.9C274.53,172.29,271.69,175.47,271.36,175Z" style="fill: rgb(255, 11, 0); transform-origin: 265.045px 172.538px;" id="elcwam3xhqofc" class="animable"></path><path d="M262.89,180.39a1.54,1.54,0,0,1-1.65,1.43,1.54,1.54,0,1,1,1.65-1.43Z" style="fill: rgb(255, 11, 0); transform-origin: 261.354px 180.284px;" id="elg8dmz655kw6" class="animable"></path><path d="M256,170.58a1.53,1.53,0,1,1-1.43-1.64A1.54,1.54,0,0,1,256,170.58Z" style="fill: rgb(255, 11, 0); transform-origin: 254.474px 170.467px;" id="el061lo1xgryd" class="animable"></path><path d="M261,183.64a.83.83,0,0,1-.91.77.84.84,0,1,1,.91-.77Z" style="fill: rgb(255, 11, 0); transform-origin: 260.163px 183.574px;" id="elvpzrlld2qwm" class="animable"></path><path d="M256.55,170.82a.9.9,0,0,1,1-.83.89.89,0,1,1-1,.83Z" style="fill: rgb(255, 11, 0); transform-origin: 257.438px 170.874px;" id="elu06ysi1lh79" class="animable"></path><g id="eli3jnivc1sdm"><g style="opacity: 0.6; transform-origin: 263.701px 175.25px;" class="animable"><path d="M271.36,175a2,2,0,0,1-2,1.12,1.86,1.86,0,0,1-.75-.21,3.56,3.56,0,0,1-3.79,3.07,3.5,3.5,0,0,1-2.55-1.35,2.17,2.17,0,0,1-.76.09,2,2,0,0,1-.83-.24,2.82,2.82,0,1,1-2-4.54,3.22,3.22,0,0,1,.7.14,1,1,0,0,1,0-.26,2.07,2.07,0,0,1,.83-1.53,2.69,2.69,0,0,1,1.69-4.92,2.69,2.69,0,0,1,2.35,1.8,2.75,2.75,0,0,1,1.43-.3,2.53,2.53,0,0,1,1.56.67,3.72,3.72,0,0,1,7.21,1.51,3.58,3.58,0,0,1-.71,1.9C274.53,172.29,271.69,175.47,271.36,175Z" id="elf5udbnkapzc" class="animable" style="transform-origin: 265.045px 172.538px;"></path><path d="M262.89,180.39a1.54,1.54,0,0,1-1.65,1.43,1.54,1.54,0,1,1,1.65-1.43Z" id="el4yvv1cysi5" class="animable" style="transform-origin: 261.354px 180.284px;"></path><path d="M256,170.58a1.53,1.53,0,1,1-1.43-1.64A1.54,1.54,0,0,1,256,170.58Z" id="el9mr4vbgcy48" class="animable" style="transform-origin: 254.474px 170.467px;"></path><path d="M261,183.64a.83.83,0,0,1-.91.77.84.84,0,1,1,.91-.77Z" id="elb4jxqd1bf8f" class="animable" style="transform-origin: 260.163px 183.574px;"></path><path d="M256.55,170.82a.9.9,0,0,1,1-.83.89.89,0,1,1-1,.83Z" id="elz7j0dbkxv8e" class="animable" style="transform-origin: 257.438px 170.874px;"></path></g></g><path d="M281.38,143.32c5.53-1.22,7.55,9.93,2.42,11.05S276.74,144.33,281.38,143.32Z" style="fill: rgb(38, 50, 56); transform-origin: 282.753px 148.838px;" id="eltngu88oj3lj" class="animable"></path><path d="M255.88,149.09c-5.57,1-3.16,12.07,2,11.15S260.55,148.25,255.88,149.09Z" style="fill: rgb(38, 50, 56); transform-origin: 256.721px 154.669px;" id="elchl89km3iuh" class="animable"></path><path d="M283.68,135.61a34.41,34.41,0,0,1-3.52-.06c-1.35,0-2.43.07-3.58-.75a1.82,1.82,0,0,1-.42-2.18c.86-1.49,2.53-1.85,4.16-1.87a6.6,6.6,0,0,1,4.51,1.51A1.94,1.94,0,0,1,283.68,135.61Z" style="fill: rgb(38, 50, 56); transform-origin: 280.706px 133.187px;" id="elp5wk13lf6nb" class="animable"></path><path d="M250,143.79a34.28,34.28,0,0,0,3.25-1.36c1.24-.54,2.28-.84,3-2a1.8,1.8,0,0,0-.42-2.17c-1.35-1.07-3-.78-4.55-.2a6.64,6.64,0,0,0-3.64,3.09A1.94,1.94,0,0,0,250,143.79Z" style="fill: rgb(38, 50, 56); transform-origin: 251.958px 140.711px;" id="elxednk35zxh" class="animable"></path><path d="M262.77,179.42c.93.7,1.9,1.7,3.17,1.64a9.13,9.13,0,0,0,3.59-1.35.12.12,0,0,1,.17.16,4.68,4.68,0,0,1-4.13,2.44c-1.6-.07-2.54-1.32-3.11-2.69C262.38,179.42,262.64,179.31,262.77,179.42Z" style="fill: rgb(38, 50, 56); transform-origin: 266.08px 180.843px;" id="elnr4w647jp5p" class="animable"></path><path d="M275,164.07s1.67,5,2.12,7.37c.05.22-.52.44-1.32.64,0,0-.06,0-.1,0a11.62,11.62,0,0,1-11.91-2.17c-.21-.2.05-.51.3-.4,3.61,1.73,7.22,1.67,11,1,.05-.7-3.15-8.5-2.76-8.51,1.65,0,4.6.15,5.69.21-1-3.26-4.33-12.34-6.16-18.26-.12-.37.44-.6.6-.28a165.34,165.34,0,0,1,8.42,20.13C281.05,164.38,276,164.3,275,164.07Z" style="fill: rgb(38, 50, 56); transform-origin: 272.299px 158.187px;" id="el1xulcw8znk8" class="animable"></path><path d="M274.59,171.82a13,13,0,0,1-4.3,5,5.89,5.89,0,0,1-3.43.91c-2.65-.15-3.18-2.45-3.11-4.51a14.09,14.09,0,0,1,.52-3.25A16.78,16.78,0,0,0,274.59,171.82Z" style="fill: rgb(38, 50, 56); transform-origin: 269.167px 173.853px;" id="elw8ysguflsfo" class="animable"></path><path d="M270.29,176.79a5.89,5.89,0,0,1-3.43.91c-2.65-.15-3.18-2.45-3.11-4.51C266.5,172.92,269.53,174.21,270.29,176.79Z" style="fill: rgb(255, 155, 188); transform-origin: 267.017px 175.431px;" id="elbnkjfzalbjf" class="animable"></path><path d="M192,122.18s-7.79,15.09-5.64,22.79,22,34.65,28.47,32.66.9-25.95.9-25.95,12.26-9.5,22.05-15.76a50,50,0,0,0-3.26-17.67,36.77,36.77,0,0,1,8.57,14.46,63.68,63.68,0,0,1,11.5-5.36c1.72-.56,3.5-1.06,5.32-1.52a102.94,102.94,0,0,0-3.41-13.24c2.55,3.29,4.8,8.54,6.33,12.55,1.1-.25,2.21-.5,3.3-.68-2.11-8.68-7.48-20.54-7.79-21.28A45.27,45.27,0,0,1,276,122.82c6.61-.9,13.59-1.22,13.59-1.22-6.31-22.87-22.6-43.34-51-42-33.41,1.57-44,36.42-44,36.42s-3.94-6.78-6-5.54,2.58,8.08,2.58,8.08-6.34,2.39-6.23,4.47C185.52,125.71,192,122.18,192,122.18Z" style="fill: rgb(38, 50, 56); transform-origin: 237.264px 128.636px;" id="ele2k50myn4k9" class="animable"></path><path d="M219.5,166.37s-13.72-13.76-20.15-8.6,5.81,26.45,14.72,28.09a8.63,8.63,0,0,0,10.58-6.57Z" style="fill: rgb(235, 148, 129); transform-origin: 211.103px 171.371px;" id="elbqk1546huq" class="animable"></path><path d="M203,163.79c-.14,0-.13.2,0,.23,6.27,1.34,10.31,6.23,13.46,11.48-2.12-1.86-4.7-2.63-7.24,0-.14.13.05.35.21.28,2.31-.93,4.11-.82,6.07.81a25.93,25.93,0,0,1,3.58,4.17c.36.48,1.26,0,.95-.54l-.07-.12C218.81,172.56,211.16,163.13,203,163.79Z" style="fill: rgb(38, 50, 56); transform-origin: 211.496px 172.357px;" id="el3evj8xnn575" class="animable"></path><path d="M349.13,329.93c9-4.23,17.92-24.86,20.76-85.69.44-9.23-59-35.57-61.2-25.92-2.77,12.14-4.16,44.69-4.31,48.26C303.09,296.65,338.79,334.8,349.13,329.93Z" style="fill: rgb(235, 148, 129); transform-origin: 337.119px 273.29px;" id="el6xc7yn31x88" class="animable"></path><path d="M307.47,225.31c-.7,13.65-2.87,30.94-2,44.44a102.37,102.37,0,0,0,5.26,23.94,86.34,86.34,0,0,0,3.73,9.17c-6.43-9.72-9.95-21.35-10.95-32.94-.62-8.32.46-16.69,1.25-24.92.75-6.59,1.64-13.15,2.72-19.69Z" style="fill: rgb(38, 50, 56); transform-origin: 308.893px 264.085px;" id="el6k6quiphik8" class="animable"></path><path d="M369.58,245.45c4.33-17.68,8.87-42.94,4.82-50.21-4.24-7.64-20.26-33.87-25.95-38.77s-30.64-27.74-37.28-26.76c-5.31.78-4.7,14.18,7.13,25.18,10.39,9.67,14.95,16.64,17.86,19.55s7,18,2.6,22.21c-2.59,2.48-12.81,2.53-17.3-2.12s-1.55-16-5.78-23.62-15.52-11.36-17.34-8.63,1.27,5.57,2.9,17.94c1.05,7.95-4.91,23.69-1.12,38.17,1.91,7.27,5.34,27.18,5.34,27.18Z" style="fill: rgb(235, 148, 129); transform-origin: 336.88px 187.625px;" id="el0oqb65grxsvd" class="animable"></path><path d="M311.67,164c-1.76-1.21-3.63-2.63-4.49-4.65a4.45,4.45,0,0,1,.16-4.14c.22-.4.6-1,1.06-1.13.15,0,0-.24-.07-.15a6.59,6.59,0,0,1-.77.47,3.36,3.36,0,0,0-.56.51,3.7,3.7,0,0,0-.78,1.27,4.87,4.87,0,0,0,0,3.22c.82,2.48,3,3.92,5.38,4.76A.09.09,0,0,0,311.67,164Z" style="fill: rgb(38, 50, 56); transform-origin: 308.826px 159.036px;" id="el3399oeotwbi" class="animable"></path><path d="M296.8,153.72l2.91-2.84,24.49-3.58,7,47.77-59,8.62-3.79-26a3.35,3.35,0,0,0,3,.47,3.3,3.3,0,0,0,1.87-1.53,4.83,4.83,0,0,0,5.05,1.29,4.78,4.78,0,0,0,3.14-3.31,6.22,6.22,0,0,0,6.43,1.59,6.06,6.06,0,0,0,3.92-7.65,5.17,5.17,0,0,0-.42-1,4.83,4.83,0,0,0,2.52-.14,4.72,4.72,0,0,0,2.53-1.93,4.62,4.62,0,0,0-.73-6l.17-.05a3.32,3.32,0,0,0,2.28-2.77,3.15,3.15,0,0,0-.14-1.39A3.21,3.21,0,0,0,296.8,153.72Z" style="fill: rgb(255, 11, 0); transform-origin: 299.805px 175.495px;" id="elpovz2dwic3" class="animable"></path><g id="elxxf31ovfe2"><path d="M296.8,153.72l2.91-2.84,24.49-3.58,7,47.77-59,8.62-3.79-26a3.35,3.35,0,0,0,3,.47,3.3,3.3,0,0,0,1.87-1.53,4.83,4.83,0,0,0,5.05,1.29,4.78,4.78,0,0,0,3.14-3.31,6.22,6.22,0,0,0,6.43,1.59,6.06,6.06,0,0,0,3.92-7.65,5.17,5.17,0,0,0-.42-1,4.83,4.83,0,0,0,2.52-.14,4.72,4.72,0,0,0,2.53-1.93,4.62,4.62,0,0,0-.73-6l.17-.05a3.32,3.32,0,0,0,2.28-2.77,3.15,3.15,0,0,0-.14-1.39A3.21,3.21,0,0,0,296.8,153.72Z" style="opacity: 0.85; transform-origin: 299.805px 175.495px;" class="animable"></path></g><path d="M299.24,153.36l25.31-3.7,6.64,45.41-59,8.62-3.51-24.07a3.59,3.59,0,0,0,3.28.53,3.63,3.63,0,0,0,2-1.68,5.16,5.16,0,0,0,8.82-2.19,6.64,6.64,0,0,0,11.15-6.63,6.15,6.15,0,0,0-.45-1.05,5.18,5.18,0,0,0,5.44-2.26,5.11,5.11,0,0,0,.55-4.41,5.06,5.06,0,0,0-1.35-2.14l.18,0a3.61,3.61,0,0,0,1.57-1,3.58,3.58,0,0,0,.88-2,3.45,3.45,0,0,0-.16-1.52A3.49,3.49,0,0,0,299.24,153.36Z" style="fill: rgb(255, 11, 0); transform-origin: 299.935px 176.675px;" id="elmlmiha1ukk" class="animable"></path><g id="el5leihluhvr8"><path d="M299.24,153.36l25.31-3.7,6.64,45.41-59,8.62-3.51-24.07a3.59,3.59,0,0,0,3.28.53,3.63,3.63,0,0,0,2-1.68,5.16,5.16,0,0,0,8.82-2.19,6.64,6.64,0,0,0,11.15-6.63,6.15,6.15,0,0,0-.45-1.05,5.18,5.18,0,0,0,5.44-2.26,5.11,5.11,0,0,0,.55-4.41,5.06,5.06,0,0,0-1.35-2.14l.18,0a3.61,3.61,0,0,0,1.57-1,3.58,3.58,0,0,0,.88-2,3.45,3.45,0,0,0-.16-1.52A3.49,3.49,0,0,0,299.24,153.36Z" style="opacity: 0.79; transform-origin: 299.935px 176.675px;" class="animable"></path></g><g id="eli1fzpsuet0s"><rect x="277.03" y="177.76" width="16.94" height="22.41" style="fill: rgb(255, 11, 0); transform-origin: 285.5px 188.965px; transform: rotate(81.9509deg);" class="animable"></rect></g><g id="el421ots78fe4"><rect x="279.35" y="180.32" width="12.3" height="17.29" style="opacity: 0.65; transform-origin: 285.5px 188.965px; transform: rotate(81.9509deg);" class="animable"></rect></g><g id="el3rpf9qq4anc"><polygon points="295.36 178.96 293.16 181.63 294.94 193.8 297.81 195.73 295.36 178.96" style="opacity: 0.6; transform-origin: 295.485px 187.345px;" class="animable"></polygon></g><g id="elfpf9kub5e0i"><polygon points="275.64 198.97 277.83 196.3 276.05 184.14 273.19 182.21 275.64 198.97" style="opacity: 0.75; transform-origin: 275.51px 190.59px;" class="animable"></polygon></g><g id="elj8kbqmh6ok"><polygon points="275.64 198.97 277.83 196.3 294.94 193.8 297.81 195.73 275.64 198.97" style="opacity: 0.75; transform-origin: 286.725px 196.385px;" class="animable"></polygon></g><g id="el5q63xcmw787"><polygon points="295.36 178.96 293.16 181.63 276.05 184.14 273.19 182.21 295.36 178.96" style="opacity: 0.6; transform-origin: 284.275px 181.55px;" class="animable"></polygon></g><path d="M300.76,156.7l19-2.78,2.45,16.77L300,173.93l-1.11-7.59a5.11,5.11,0,0,0,.55-4.41,5.06,5.06,0,0,0-1.35-2.14l.18,0a3.61,3.61,0,0,0,1.57-1A3.58,3.58,0,0,0,300.76,156.7Z" style="fill: rgb(255, 11, 0); transform-origin: 310.15px 163.925px;" id="eluri9yysorpq" class="animable"></path><g id="eltqjj6w4im7p"><rect x="303.75" y="155.28" width="12.3" height="17.29" style="opacity: 0.65; transform-origin: 309.9px 163.925px; transform: rotate(81.9509deg);" class="animable"></rect></g><g id="el5ytwuj9tv6"><polygon points="319.76 153.92 317.56 156.59 319.34 168.76 322.21 170.69 319.76 153.92" style="opacity: 0.6; transform-origin: 319.885px 162.305px;" class="animable"></polygon></g><g id="elxqpa6ktzelf"><path d="M299.88,158.7l.57.4,1.79,12.17-2.2,2.66-1.11-7.59a5.11,5.11,0,0,0,.55-4.41,5.06,5.06,0,0,0-1.35-2.14l.18,0A3.61,3.61,0,0,0,299.88,158.7Z" style="opacity: 0.75; transform-origin: 300.185px 166.315px;" class="animable"></path></g><g id="elej9kllb4nnl"><polygon points="300.04 173.93 302.24 171.26 319.34 168.76 322.21 170.69 300.04 173.93" style="opacity: 0.75; transform-origin: 311.125px 171.345px;" class="animable"></polygon></g><g id="ell4axs4w3ph"><path d="M300.76,156.7l19-2.78-2.2,2.67-17.11,2.51-.57-.4A3.58,3.58,0,0,0,300.76,156.7Z" style="opacity: 0.6; transform-origin: 309.82px 156.51px;" class="animable"></path></g><g id="elbssg96m8hwf"><rect x="304.5" y="173.74" width="16.94" height="22.41" style="fill: rgb(255, 11, 0); transform-origin: 312.97px 184.945px; transform: rotate(81.68deg);" class="animable"></rect></g><g id="el7rwkc0tbeaq"><rect x="306.83" y="176.3" width="12.3" height="17.29" style="opacity: 0.65; transform-origin: 312.98px 184.945px; transform: rotate(81.68deg);" class="animable"></rect></g><g id="el2q9yqwvtf7o"><polygon points="322.83 174.94 320.64 177.61 322.42 189.78 325.29 191.71 322.83 174.94" style="opacity: 0.6; transform-origin: 322.965px 183.325px;" class="animable"></polygon></g><g id="el1iulm1t23ke"><polygon points="303.11 194.95 305.31 192.28 303.53 180.12 300.66 178.19 303.11 194.95" style="opacity: 0.75; transform-origin: 302.985px 186.57px;" class="animable"></polygon></g><g id="el889n39f1dai"><polygon points="303.11 194.95 305.31 192.28 322.42 189.78 325.29 191.71 303.11 194.95" style="opacity: 0.75; transform-origin: 314.2px 192.365px;" class="animable"></polygon></g><g id="elh3s2ylf7t0a"><polygon points="322.83 174.94 320.64 177.61 303.53 180.12 300.66 178.19 322.83 174.94" style="opacity: 0.6; transform-origin: 311.745px 177.53px;" class="animable"></polygon></g><path d="M372.23,190.16c-2-10.48-7.47-25.89-18.91-36.43-7.74-7.13-45.21-4.31-46.68,2.05s3.89,8.52,12.2,10.73c3,.81,20.52,1.39,21.85,5.64,1.92,6.1,3.42,17.29,3.42,17.29l20.43-4.77Z" style="fill: rgb(235, 148, 129); transform-origin: 339.314px 169.848px;" id="elwvy3cbygo9e" class="animable"></path><path d="M308.35,153.75c6.43-4.88,16.32-4.92,25.88-4.26.15,0,.14.24,0,.23-2.44-.17-18.79.7-25.83,4.17C308.32,153.93,308.29,153.8,308.35,153.75Z" style="fill: rgb(38, 50, 56); transform-origin: 321.329px 151.544px;" id="el6cxedlzsi5n" class="animable"></path><path d="M372.44,187.65a62.73,62.73,0,0,0-19.12-33.92c-7.74-7.13-40.35,2.57-41.82,8.94s6.05,9.9,15.74,10.32c3.13.14,14.95-2.69,16.28,1.55,1.91,6.11,4.57,14.86,4.57,14.86l18.24-1.83Z" style="fill: rgb(235, 148, 129); transform-origin: 341.878px 170.312px;" id="el8zuhklt40av" class="animable"></path><path d="M347.57,186.54c-.33-1.66-.44-2.23-.8-3.89s-.75-3.29-1.22-4.91a13,13,0,0,0-1.64-4.08,6.48,6.48,0,0,0-3.47-2.24c-3.06-.9-6.48-.08-9.55.36-3.44.49-10.27.79-14.53-1.45a9.26,9.26,0,0,1-3.13-2.34,5.81,5.81,0,0,1-1.43-2.51c-.63-4,3.26-6.81,6.77-8.47,6.54-3.11,14.13-4.23,21.28-4.78,1.76-.14,3.52-.23,5.28-.32a14.07,14.07,0,0,1,6,.6c3.09,1.2,6.91,6.35,8.1,7.92.09.12.26,0,.17-.16-1.43-1.94-4.6-7.65-9.68-9.38-1.86-.63-3.94-.37-5.88-.32s-4.07.19-6.09.36A75,75,0,0,0,326,152.78c-3.64.9-7.59,2.06-10.68,4.25-2.68,1.9-4.62,5.34-4.08,8.67.47,2.8,3.15,4.5,4.42,5.21a16.24,16.24,0,0,0,3.94,1.52,67.21,67.21,0,0,0,9.53.9c3.13,0,6.29-.86,9.4-.59a5.56,5.56,0,0,1,3.93,1.86,14.85,14.85,0,0,1,1.92,3.94,45.47,45.47,0,0,1,2.66,8C347.22,187.26,347.71,187.24,347.57,186.54Z" style="fill: rgb(38, 50, 56); transform-origin: 335.287px 168.773px;" id="el3utgq0a3p86" class="animable"></path><path d="M375.53,200.77c-.37-4.75,2.77-19.13,1.6-25.41s-8.71-29.42-15.75-31.35c-8.86-2.42-6.1,16.37-4.15,24.43s-3.06,18.46-3.06,18.46l15.61-.71Z" style="fill: rgb(235, 148, 129); transform-origin: 365.781px 172.283px;" id="elprhdud41kk" class="animable"></path><path d="M355.18,155.54a82.58,82.58,0,0,1,1.83,8.07,53.84,53.84,0,0,1,1.31,7.75A23.62,23.62,0,0,1,357.2,179c-.36,1.23-.79,2.41-1.25,3.6s-1.14,2.56-1.62,3.86c-.05.14-.27.07-.22-.07A60.26,60.26,0,0,0,356,179a32.22,32.22,0,0,0,.66-7.84c-.22-5.23-1.55-10.34-1.81-15.57C354.82,155.37,355.13,155.36,355.18,155.54Z" style="fill: rgb(38, 50, 56); transform-origin: 356.213px 170.975px;" id="ell18fbd36cg" class="animable"></path><path d="M353.35,188.65c-2.23,6.13-7.3,10.83-12.3,14.81-3.44,2.64-7.38,4.44-10.8,7.06a37.86,37.86,0,0,0-8.79,9.2,50.36,50.36,0,0,0-3.29,5.53,37.94,37.94,0,0,1,16.93-19.08,53.88,53.88,0,0,0,10.31-7.55c3.1-2.91,6.16-6.05,7.94-10Z" style="fill: rgb(38, 50, 56); transform-origin: 335.76px 206.935px;" id="elbgpz6d54tw" class="animable"></path><polygon points="292.09 228.12 340.71 260.05 339.4 262.05 302.89 317.62 254.28 285.69 292.09 228.12" style="fill: rgb(255, 11, 0); transform-origin: 297.495px 272.87px;" id="el9e9fyayz1fc" class="animable"></polygon><g id="ely0hn1r8frth"><polygon points="292.09 228.12 340.71 260.05 339.4 262.05 302.89 317.62 254.28 285.69 292.09 228.12" style="opacity: 0.85; transform-origin: 297.495px 272.87px;" class="animable"></polygon></g><polygon points="290.78 230.11 339.4 262.05 302.89 317.62 254.28 285.69 290.78 230.11" style="fill: rgb(255, 11, 0); transform-origin: 296.84px 273.865px;" id="elafqsmpjyuft" class="animable"></polygon><g id="elje02j0qzsm"><polygon points="290.78 230.11 339.4 262.05 302.89 317.62 254.28 285.69 290.78 230.11" style="opacity: 0.79; transform-origin: 296.84px 273.865px;" class="animable"></polygon></g><g id="elluclp6fvymj"><rect x="288.7" y="237.46" width="16.94" height="22.41" style="fill: rgb(255, 11, 0); transform-origin: 297.17px 248.665px; transform: rotate(123.3deg);" class="animable"></rect></g><g id="elhtquxyfjcd9"><rect x="291.03" y="240.02" width="12.3" height="17.29" style="opacity: 0.65; transform-origin: 297.18px 248.665px; transform: rotate(123.3deg);" class="animable"></rect></g><g id="els57tomtiml"><polygon points="311.19 247.74 307.78 248.28 301.02 258.56 301.89 261.9 311.19 247.74" style="opacity: 0.75; transform-origin: 306.105px 254.82px;" class="animable"></polygon></g><g id="elpds1wd83yhj"><polygon points="283.16 249.6 286.57 249.06 293.32 238.78 292.46 235.44 283.16 249.6" style="opacity: 0.6; transform-origin: 288.24px 242.52px;" class="animable"></polygon></g><g id="elg8fnwathht"><polygon points="283.16 249.6 286.57 249.06 301.02 258.56 301.89 261.9 283.16 249.6" style="opacity: 0.6; transform-origin: 292.525px 255.48px;" class="animable"></polygon></g><g id="elbcelhv9exz7"><polygon points="311.19 247.74 307.78 248.28 293.32 238.78 292.46 235.44 311.19 247.74" style="opacity: 0.75; transform-origin: 301.825px 241.86px;" class="animable"></polygon></g><g id="el42fsawa7y3o"><rect x="277.04" y="255.22" width="16.94" height="22.41" style="fill: rgb(255, 11, 0); transform-origin: 285.51px 266.425px; transform: rotate(123.3deg);" class="animable"></rect></g><g id="elb0enfvg6xb9"><rect x="279.36" y="257.78" width="12.3" height="17.29" style="opacity: 0.65; transform-origin: 285.51px 266.425px; transform: rotate(123.3deg);" class="animable"></rect></g><g id="elkwl516j5h1k"><polygon points="299.53 265.5 296.11 266.03 289.36 276.31 290.23 279.66 299.53 265.5" style="opacity: 0.75; transform-origin: 294.445px 272.58px;" class="animable"></polygon></g><g id="elps8jbdxhjsm"><polygon points="271.5 267.35 274.91 266.82 281.66 256.54 280.8 253.19 271.5 267.35" style="opacity: 0.6; transform-origin: 276.58px 260.27px;" class="animable"></polygon></g><g id="eld3folym6lo"><polygon points="271.5 267.35 274.91 266.82 289.36 276.31 290.23 279.66 271.5 267.35" style="opacity: 0.6; transform-origin: 280.865px 273.24px;" class="animable"></polygon></g><g id="el0c54qanwi3fi"><polygon points="299.53 265.5 296.11 266.03 281.66 256.54 280.8 253.19 299.53 265.5" style="opacity: 0.75; transform-origin: 290.165px 259.61px;" class="animable"></polygon></g><g id="el6htfv76u3rk"><rect x="265.38" y="272.97" width="16.94" height="22.41" style="fill: rgb(255, 11, 0); transform-origin: 273.85px 284.175px; transform: rotate(-236.785deg);" class="animable"></rect></g><g id="elih0rm81fd8"><rect x="267.7" y="275.53" width="12.3" height="17.29" style="opacity: 0.65; transform-origin: 273.85px 284.175px; transform: rotate(123.3deg);" class="animable"></rect></g><g id="el67lp5b6r0mt"><polygon points="287.87 283.25 284.45 283.79 277.7 294.06 278.56 297.41 287.87 283.25" style="opacity: 0.75; transform-origin: 282.785px 290.33px;" class="animable"></polygon></g><g id="el34eh8v3o1ms"><polygon points="259.83 285.11 263.25 284.57 270 274.29 269.13 270.95 259.83 285.11" style="opacity: 0.6; transform-origin: 264.915px 278.03px;" class="animable"></polygon></g><g id="elyexa4rr94r"><polygon points="259.83 285.11 263.25 284.57 277.7 294.06 278.56 297.41 259.83 285.11" style="opacity: 0.6; transform-origin: 269.195px 290.99px;" class="animable"></polygon></g><g id="el3328jaoykil"><polygon points="287.87 283.25 284.45 283.79 270 274.29 269.13 270.95 287.87 283.25" style="opacity: 0.75; transform-origin: 278.5px 277.37px;" class="animable"></polygon></g><g id="elcdiiys4iei"><rect x="311.91" y="252.71" width="16.94" height="22.41" style="fill: rgb(255, 11, 0); transform-origin: 320.38px 263.915px; transform: rotate(123.3deg);" class="animable"></rect></g><g id="el17ryfyy21ng"><rect x="314.24" y="255.27" width="12.3" height="17.29" style="opacity: 0.65; transform-origin: 320.39px 263.915px; transform: rotate(123.3deg);" class="animable"></rect></g><g id="el6ry7v4ub6dq"><polygon points="334.4 262.99 330.99 263.52 324.23 273.8 325.1 277.15 334.4 262.99" style="opacity: 0.75; transform-origin: 329.315px 270.07px;" class="animable"></polygon></g><g id="elbe0iesmgnfl"><polygon points="306.37 264.84 309.78 264.31 316.53 254.03 315.67 250.68 306.37 264.84" style="opacity: 0.6; transform-origin: 311.45px 257.76px;" class="animable"></polygon></g><g id="el0kpwrjyotf7e"><polygon points="306.37 264.84 309.78 264.31 324.23 273.8 325.1 277.15 306.37 264.84" style="opacity: 0.6; transform-origin: 315.735px 270.73px;" class="animable"></polygon></g><g id="elzvo608vdya"><polygon points="334.4 262.99 330.99 263.52 316.53 254.03 315.67 250.68 334.4 262.99" style="opacity: 0.75; transform-origin: 325.035px 257.1px;" class="animable"></polygon></g><g id="eljpkspazviw"><rect x="300.25" y="270.46" width="16.94" height="22.41" style="fill: rgb(255, 11, 0); transform-origin: 308.72px 281.665px; transform: rotate(123.3deg);" class="animable"></rect></g><g id="elqrzinalnpis"><rect x="302.57" y="273.02" width="12.3" height="17.29" style="opacity: 0.65; transform-origin: 308.72px 281.665px; transform: rotate(123.3deg);" class="animable"></rect></g><g id="elid342euztwn"><polygon points="322.74 280.74 319.32 281.28 312.57 291.56 313.44 294.9 322.74 280.74" style="opacity: 0.75; transform-origin: 317.655px 287.82px;" class="animable"></polygon></g><g id="elqx9ji6hw3a"><polygon points="294.7 282.6 298.12 282.06 304.87 271.78 304.01 268.44 294.7 282.6" style="opacity: 0.6; transform-origin: 299.785px 275.52px;" class="animable"></polygon></g><g id="el5iy3tsygaq6"><polygon points="294.7 282.6 298.12 282.06 312.57 291.56 313.44 294.9 294.7 282.6" style="opacity: 0.6; transform-origin: 304.07px 288.48px;" class="animable"></polygon></g><g id="elu895e62t9ms"><polygon points="322.74 280.74 319.32 281.28 304.87 271.78 304.01 268.44 322.74 280.74" style="opacity: 0.75; transform-origin: 313.375px 274.86px;" class="animable"></polygon></g><g id="elwc1wjmdpyhs"><rect x="288.59" y="288.22" width="16.94" height="22.41" style="fill: rgb(255, 11, 0); transform-origin: 297.06px 299.425px; transform: rotate(123.3deg);" class="animable"></rect></g><g id="el4kcy2bbzo4t"><rect x="290.91" y="290.78" width="12.3" height="17.29" style="opacity: 0.65; transform-origin: 297.06px 299.425px; transform: rotate(123.3deg);" class="animable"></rect></g><g id="eldlgqldplzbd"><polygon points="311.07 298.5 307.66 299.03 300.91 309.31 301.77 312.66 311.07 298.5" style="opacity: 0.75; transform-origin: 305.99px 305.58px;" class="animable"></polygon></g><g id="elzhiex72nffg"><polygon points="283.04 300.35 286.46 299.82 293.21 289.54 292.34 286.19 283.04 300.35" style="opacity: 0.6; transform-origin: 288.125px 293.27px;" class="animable"></polygon></g><g id="elje5wqqr8sla"><polygon points="283.04 300.35 286.46 299.82 300.91 309.31 301.77 312.66 283.04 300.35" style="opacity: 0.6; transform-origin: 292.405px 306.24px;" class="animable"></polygon></g><g id="eloa7p8dvflgd"><polygon points="311.07 298.5 307.66 299.03 293.21 289.54 292.34 286.19 311.07 298.5" style="opacity: 0.75; transform-origin: 301.705px 292.61px;" class="animable"></polygon></g><path d="M127.62,367.21c8.53,5.1,33.92,5.69,86-25.9,7.9-4.8-2.1-70.53-11.33-67-11.62,4.48-39.4,21.5-42.45,23.36C134.15,313.42,117.8,361.34,127.62,367.21Z" style="fill: rgb(235, 148, 129); transform-origin: 170.607px 322.004px;" id="el172jzs0hw6o" class="animable"></path><path d="M187,285S206.58,267,219.8,260.82c17.71-8.33,36.42-8.23,44.26-7.72,16.36,1.07,55.19,15,53.13,26.86-1.86,10.76-40.83-5.46-40.83-5.46s42.46,10,37.84,22.52-48.78-8.87-48.78-8.87,43.39,11.24,36.58,23.41c-5.14,9.2-46.23-7.93-46.23-7.93s37.23,9.92,32.34,19.61c-5.39,10.7-44.32-2.73-44.32-2.73-16.56,22.54-33.67,26.5-46.17,27.87C194.59,348.71,187,285,187,285Z" style="fill: rgb(235, 148, 129); transform-origin: 252.134px 300.644px;" id="elg1yedq2il6e" class="animable"></path><path d="M261.9,270.1c5,1,10.13,2,15.05,3.4s9.81,3.05,14.57,4.93c11.7,4.63,18.3,9.36,17.86,9.11-10.39-5.85-27.94-11.27-32.87-12.7s-9.76-3.11-14.67-4.55C261.72,270.25,261.78,270.08,261.9,270.1Z" style="fill: rgb(38, 50, 56); transform-origin: 285.588px 278.824px;" id="elk54dblsmeh8" class="animable"></path><path d="M256.39,287.79c6.37,1.54,12.75,2.85,19.05,4.67s12.06,4.09,18.19,6.34c.47.17.22.37-.26.21-6.21-2-12.11-3.36-18.35-5.29s-12.4-4.09-18.68-5.78C256.25,287.91,256.3,287.77,256.39,287.79Z" style="fill: rgb(38, 50, 56); transform-origin: 275.087px 293.428px;" id="elfh11c8axd4l" class="animable"></path><path d="M248.94,302.12c9.85,1.86,19.35,5.54,28.57,9.37.46.19.12.41-.36.24-9.45-3.29-16.83-5.94-28.28-9.27C248.69,302.41,248.73,302.08,248.94,302.12Z" style="fill: rgb(38, 50, 56); transform-origin: 263.242px 306.954px;" id="elxqo3bt7hys" class="animable"></path><path d="M243.79,320.51c10.33,3.16,21,6.13,31.73,6.77,4.08.1,12.09,0,11.71-5.6-.6-2.3-2.86-4.13-4.75-5.6a61.85,61.85,0,0,0-6.8-4.27l-7.86-4.41,8.65,2.58c5.21,1.47,21.95,6.11,25.1.5,1.8-5.33-9.82-11.5-13.62-13.89l4.87,1.65c4.49,1.45,9.2,2.71,14,2.69a10.3,10.3,0,0,0,4.63-1c-2.81,1.66-6.3,1.46-9.45,1.21a52.52,52.52,0,0,1-9.5-1.87l.45-1c4,2.4,8.5,5,10.32,9.6,1.24,3.49-2,6.24-5.14,6.72-7.62,1.22-14.95-.78-22.21-2.72l.79-1.82a63.26,63.26,0,0,1,7,4.46c3.46,2.48,7.82,7.13,4.07,11.34-3.17,3.29-8.18,3.13-12.28,2.95-11-.94-21.46-4.38-31.65-8.31Z" style="fill: rgb(38, 50, 56); transform-origin: 277.62px 312.735px;" id="elcb7vfkz24zt" class="animable"></path><path d="M195.79,277.23c-11.71,7-27.27,14.9-38,23.14a103,103,0,0,0-16.93,17.73,87.93,87.93,0,0,0-5.53,8.21c4.48-10.75,12.16-20.17,21.22-27.46,6.56-5.17,14.1-8.94,21.38-12.88,5.88-3.05,11.83-6,17.85-8.74Z" style="fill: rgb(38, 50, 56); transform-origin: 165.56px 301.77px;" id="el1hzhtibfjvl" class="animable"></path></g><defs>     <filter id="active" height="200%">         <feMorphology in="SourceAlpha" result="DILATED" operator="dilate" radius="2"></feMorphology>                <feFlood flood-color="#32DFEC" flood-opacity="1" result="PINK"></feFlood>        <feComposite in="PINK" in2="DILATED" operator="in" result="OUTLINE"></feComposite>        <feMerge>            <feMergeNode in="OUTLINE"></feMergeNode>            <feMergeNode in="SourceGraphic"></feMergeNode>        </feMerge>    </filter>    <filter id="hover" height="200%">        <feMorphology in="SourceAlpha" result="DILATED" operator="dilate" radius="2"></feMorphology>                <feFlood flood-color="#ff0000" flood-opacity="0.5" result="PINK"></feFlood>        <feComposite in="PINK" in2="DILATED" operator="in" result="OUTLINE"></feComposite>        <feMerge>            <feMergeNode in="OUTLINE"></feMergeNode>            <feMergeNode in="SourceGraphic"></feMergeNode>        </feMerge>            <feColorMatrix type="matrix" values="0   0   0   0   0                0   1   0   0   0                0   0   0   0   0                0   0   0   1   0 "></feColorMatrix>    </filter></defs></svg>